<?xml version="1.0" encoding="UTF-8"?>
<svg version="1.1" xmlns="http://www.w3.org/2000/svg" width="1124" height="1162">
<path d="M0 0 C41.2719637 -12.97995331 82.7436386 -20.98027201 125.72936082 -25.48497963 C128.24006262 -25.74895518 130.74987437 -26.02050277 133.25974846 -26.29222107 C214.76357303 -34.96737314 287.86541347 -20.23029106 352.45172404 31.73878475 C415.49616295 82.81674223 472.32072874 141.55853889 531.4916862 204.1405507 C533.84143424 206.62545262 536.19311561 209.10852084 538.54473603 211.59165065 C595.0214003 271.23295381 650.29556274 331.90505061 720 412 C722.81641806 410.71631205 724.86970498 409.37989558 727.05404299 407.19320333 C727.63470941 406.61677528 728.21537582 406.04034723 728.81363818 405.44645166 C729.44297811 404.81157186 730.07231804 404.17669206 730.72072887 403.52257347 C731.39870576 402.84660468 732.07668264 402.17063589 732.77520427 401.4741832 C735.0622114 399.19149194 737.341969 396.9016932 739.62187195 394.61190796 C741.26997817 392.96395769 742.91852517 391.31644816 744.56747657 389.66934359 C748.63330755 385.60578595 752.6944534 381.53758796 756.75369755 377.46745135 C761.61482506 372.59381268 766.48176432 367.7259938 771.34895692 362.85841344 C780.33171972 353.87462919 789.3098857 344.88626432 798.28552818 335.89536667 C807.17490433 326.99094106 816.0665563 318.08879756 824.96119118 309.18962479 C825.51392346 308.6366099 826.06665574 308.08359501 826.63613749 307.5138221 C829.44313089 304.70542421 832.25017049 301.89707251 835.0572314 299.08874209 C854.94795379 279.18892694 874.83441147 259.28485515 894.71801758 239.37792969 C895.92077605 238.17376364 897.12353461 236.96959769 898.32629327 235.76543184 C898.92223465 235.16879285 899.51817603 234.57215387 900.13217624 233.95743492 C903.14731889 230.93876333 906.16246389 227.92009407 909.1776123 224.90142822 C909.77552807 224.30281399 910.37344384 223.70419976 910.98947827 223.08744571 C924.88300718 209.17773056 938.77782283 195.26930111 952.6730957 181.36132812 C953.56607441 180.46753024 953.56607441 180.46753024 954.4770931 179.55567583 C968.0602589 165.96007177 981.64401754 152.36506041 995.22894764 138.77121925 C996.08458145 137.91502235 996.08458145 137.91502235 996.95750079 137.04152855 C1002.08778482 131.90787864 1007.21809264 126.77425249 1012.34852669 121.64075251 C1025.16021905 108.82140046 1037.97041844 96.00056243 1050.77699292 83.17609745 C1059.69846176 74.24217516 1068.6215187 65.30984205 1077.54629811 56.37922691 C1082.38614004 51.53610033 1087.22512293 46.69212221 1092.06183815 41.84587288 C1096.48151199 37.4176263 1100.90342609 32.9916302 1105.32719801 28.56747766 C1106.9349651 26.95873745 1108.54186675 25.34913181 1110.14785679 23.73861758 C1112.31522755 21.56537119 1114.48559082 19.39516022 1116.65679455 17.22574425 C1117.29315798 16.58618211 1117.9295214 15.94661998 1118.58516857 15.28767717 C1122.88586319 11 1122.88586319 11 1124 11 C1124 300.74 1124 590.48 1124 889 C1057.01 889 990.02 889 921 889 C920.67 701.23 920.34 513.46 920 320 C820.01 419.99 720.02 519.98 617 623 C612.96114478 620.98057239 610.35760425 618.63380075 607.2409668 615.48388672 C606.67616608 614.92098434 606.11136536 614.35808197 605.52944946 613.77812195 C603.66445194 611.91682686 601.80675224 610.04842931 599.94921875 608.1796875 C598.64927572 606.87855146 597.34896181 605.57778586 596.04829407 604.27737427 C593.3208343 601.54835014 590.5967659 598.8160003 587.87524414 596.08105469 C584.4038031 592.59270005 580.92589295 589.11088715 577.44560528 585.63136101 C574.75741156 582.94289382 572.07184423 580.25181579 569.38712502 577.5598793 C568.10681874 576.27641139 566.82592403 574.99353017 565.5444088 573.71126938 C563.74282782 571.90749365 561.94459233 570.10044561 560.1472168 568.29248047 C559.62697433 567.77269119 559.10673187 567.25290192 558.57072449 566.71736145 C555.8408152 563.96417902 553.23787372 561.14605723 550.70930481 558.20632935 C546.52712178 553.38409933 542.02925406 548.90446001 537.50390625 544.40625 C536.08231431 542.98689956 534.6607225 541.56754899 533.23913574 540.14819336 C531.72538787 538.63779531 530.21039865 537.12865277 528.69503784 535.61987305 C525.52249537 532.46096582 522.35387154 529.29814687 519.18579102 526.13476562 C512.46016658 519.42019501 505.73031147 512.70987209 499 506 C491.73156422 498.75363784 484.46388304 491.50652817 477.20109081 484.25450897 C474.0583332 481.11670216 470.91316167 477.9813422 467.76605225 474.84790039 C466.27725747 473.36480062 464.78963722 471.88053444 463.30252075 470.39575195 C461.49875851 468.59483381 459.69322054 466.79569149 457.88546753 464.9987793 C453.68731922 460.8009976 449.67452246 456.52796485 445.80310059 452.02894592 C442.23980492 448.01933367 438.39892433 444.27821049 434.59570312 440.49804688 C433.1890826 439.09366785 431.78246221 437.68928869 430.37584686 436.28490448 C428.87826072 434.79066782 427.3794332 433.29768688 425.88023376 431.80506897 C422.74129529 428.67976764 419.6062772 425.55055293 416.47180176 422.42077637 C409.81750741 415.77753506 403.15898212 409.13854192 396.5 402.5 C389.30855273 395.33062738 382.11786072 388.16050667 374.93205786 380.98547602 C371.822752 377.88112039 368.71103257 374.77921165 365.59737396 371.67922211 C364.12435393 370.21189766 362.65250897 368.74340637 361.1811676 367.2743988 C359.39670286 365.49277767 357.61046288 363.71293187 355.82200623 361.93531799 C351.6461259 357.75980617 347.65765877 353.50691893 343.80632782 349.03217316 C340.24160934 345.02175759 336.4000261 341.27930558 332.59570312 337.49804688 C331.1890826 336.09366785 329.78246221 334.68928869 328.37584686 333.28490448 C326.87826072 331.79066782 325.3794332 330.29768688 323.88023376 328.80506897 C320.74129529 325.67976764 317.6062772 322.55055293 314.47180176 319.42077637 C307.81750741 312.77753506 301.15898212 306.13854192 294.5 299.5 C287.30855273 292.33062738 280.11786072 285.16050667 272.93205786 277.98547602 C269.822752 274.88112039 266.71103257 271.77921165 263.59737396 268.67922211 C262.12435393 267.21189766 260.65250897 265.74340637 259.1811676 264.2743988 C257.39670286 262.49277767 255.61046288 260.71293187 253.82200623 258.93531799 C250.2676566 255.38128203 246.78492843 251.81651882 243.5057373 248.0057373 C239.40368361 243.23973814 234.96175261 238.83736336 230.50390625 234.40625 C229.08231431 232.98689956 227.6607225 231.56754899 226.23913574 230.14819336 C224.72538787 228.63779531 223.21039865 227.12865277 221.69503784 225.61987305 C218.52249537 222.46096582 215.35387154 219.29814687 212.18579102 216.13476562 C205.46016658 209.42019501 198.73031147 202.70987209 192 196 C184.73156422 188.75363784 177.46388304 181.50652817 170.20109081 174.25450897 C167.0583332 171.11670216 163.91316167 167.9813422 160.76605225 164.84790039 C159.27725747 163.36480062 157.78963722 161.88053444 156.30252075 160.39575195 C154.49875851 158.59483381 152.69322054 156.79569149 150.88546753 154.9987793 C146.68731922 150.8009976 142.67452246 146.52796485 138.80310059 142.02894592 C135.23980492 138.01933367 131.39892433 134.27821049 127.59570312 130.49804688 C126.1890826 129.09366785 124.78246221 127.68928869 123.37584686 126.28490448 C121.87826072 124.79066782 120.3794332 123.29768688 118.88023376 121.80506897 C115.74129529 118.67976764 112.6062772 115.55055293 109.47180176 112.42077637 C102.81750741 105.77753506 96.15898212 99.13854192 89.5 92.5 C82.30855273 85.33062738 75.11786072 78.16050667 67.93205786 70.98547602 C64.822752 67.88112039 61.71103257 64.77921165 58.59737396 61.67922211 C57.12435393 60.21189766 55.65250897 58.74340637 54.1811676 57.2743988 C52.39670286 55.49277767 50.61046288 53.71293187 48.82200623 51.93531799 C44.53926431 47.65295401 40.4265361 43.29374377 36.47717857 38.70204544 C34.72781008 36.68637535 32.89229036 34.78463905 30.99243164 32.91064453 C30.29223404 32.21697784 29.59203644 31.52331116 28.87062073 30.80862427 C27.77644081 29.73159744 27.77644081 29.73159744 26.66015625 28.6328125 C25.08776325 27.07304506 23.51550129 25.51314552 21.94335938 23.953125 C19.4871288 21.52186969 17.0293121 19.09225729 14.5690918 16.66503906 C12.17847165 14.30443461 9.79395526 11.93780197 7.41015625 9.5703125 C6.66653336 8.84014923 5.92291046 8.10998596 5.15675354 7.35769653 C4.47862106 6.68294281 3.80048859 6.00818909 3.10180664 5.31298828 C2.50114883 4.7197879 1.90049103 4.12658752 1.28163147 3.51541138 C0 2 0 2 0 0 Z " fill="#FFFFFF" transform="translate(0,0)"/>
<path d="M0 0 C66.99 0 133.98 0 203 0 C203.33 187.77 203.66 375.54 204 569 C303.99 469.01 403.98 369.02 507 266 C511.03885522 268.01942761 513.64239575 270.36619925 516.7590332 273.51611328 C517.60623428 274.36046684 517.60623428 274.36046684 518.47055054 275.22187805 C520.33554806 277.08317314 522.19324776 278.95157069 524.05078125 280.8203125 C525.35072428 282.12144854 526.65103819 283.42221414 527.95170593 284.72262573 C530.6791657 287.45164986 533.4032341 290.1839997 536.12475586 292.91894531 C539.5961969 296.40729995 543.07410705 299.88911285 546.55439472 303.36863899 C549.24258844 306.05710618 551.92815577 308.74818421 554.61287498 311.4401207 C555.89318126 312.72358861 557.17407597 314.00646983 558.4555912 315.28873062 C560.25717218 317.09250635 562.05540767 318.89955439 563.8527832 320.70751953 C564.6331469 321.48720345 564.6331469 321.48720345 565.42927551 322.28263855 C568.16105427 325.03770638 570.76582752 327.85792455 573.2964325 330.79940796 C577.44858442 335.58705982 581.91125224 340.03614823 586.40429688 344.50195312 C587.8109174 345.90633215 589.21753779 347.31071131 590.62415314 348.71509552 C592.12173928 350.20933218 593.6205668 351.70231312 595.11976624 353.19493103 C598.25870471 356.32023236 601.3937228 359.44944707 604.52819824 362.57922363 C611.18249259 369.22246494 617.84101788 375.86145808 624.5 382.5 C631.69144727 389.66937262 638.88213928 396.83949333 646.06794214 404.01452398 C649.177248 407.11887961 652.28896743 410.22078835 655.40262604 413.32077789 C656.87564607 414.78810234 658.34749103 416.25659363 659.8188324 417.7256012 C661.60329714 419.50722233 663.38953712 421.28706813 665.17799377 423.06468201 C669.3538741 427.24019383 673.34234123 431.49308107 677.19367218 435.96782684 C680.75839066 439.97824241 684.5999739 443.72069442 688.40429688 447.50195312 C689.8109174 448.90633215 691.21753779 450.31071131 692.62415314 451.71509552 C694.12173928 453.20933218 695.6205668 454.70231312 697.11976624 456.19493103 C700.25870471 459.32023236 703.3937228 462.44944707 706.52819824 465.57922363 C713.18249259 472.22246494 719.84101788 478.86145808 726.5 485.5 C733.69144727 492.66937262 740.88213928 499.83949333 748.06794214 507.01452398 C751.177248 510.11887961 754.28896743 513.22078835 757.40262604 516.32077789 C758.87564607 517.78810234 760.34749103 519.25659363 761.8188324 520.7256012 C763.60329714 522.50722233 765.38953712 524.28706813 767.17799377 526.06468201 C770.7323434 529.61871797 774.21507157 533.18348118 777.4942627 536.9942627 C781.59631639 541.76026186 786.03824739 546.16263664 790.49609375 550.59375 C791.91768569 552.01310044 793.3392775 553.43245101 794.76086426 554.85180664 C796.27461213 556.36220469 797.78960135 557.87134723 799.30496216 559.38012695 C802.47750463 562.53903418 805.64612846 565.70185313 808.81420898 568.86523438 C815.53983342 575.57980499 822.26968853 582.29012791 829 589 C836.26843578 596.24636216 843.53611696 603.49347183 850.79890919 610.74549103 C853.9416668 613.88329784 857.08683833 617.0186578 860.23394775 620.15209961 C861.72274253 621.63519938 863.21036278 623.11946556 864.69747925 624.60424805 C866.50124149 626.40516619 868.30677946 628.20430851 870.11453247 630.0012207 C874.31268078 634.1990024 878.32547754 638.47203515 882.19689941 642.97105408 C885.76019508 646.98066633 889.60107567 650.72178951 893.40429688 654.50195312 C894.8109174 655.90633215 896.21753779 657.31071131 897.62415314 658.71509552 C899.12173928 660.20933218 900.6205668 661.70231312 902.11976624 663.19493103 C905.25870471 666.32023236 908.3937228 669.44944707 911.52819824 672.57922363 C918.18249259 679.22246494 924.84101788 685.86145808 931.5 692.5 C938.69144727 699.66937262 945.88213928 706.83949333 953.06794214 714.01452398 C956.177248 717.11887961 959.28896743 720.22078835 962.40262604 723.32077789 C963.87564607 724.78810234 965.34749103 726.25659363 966.8188324 727.7256012 C968.60329714 729.50722233 970.38953712 731.28706813 972.17799377 733.06468201 C976.3538741 737.24019383 980.34234123 741.49308107 984.19367218 745.96782684 C987.75839066 749.97824241 991.5999739 753.72069442 995.40429688 757.50195312 C996.8109174 758.90633215 998.21753779 760.31071131 999.62415314 761.71509552 C1001.12173928 763.20933218 1002.6205668 764.70231312 1004.11976624 766.19493103 C1007.25870471 769.32023236 1010.3937228 772.44944707 1013.52819824 775.57922363 C1020.18249259 782.22246494 1026.84101788 788.86145808 1033.5 795.5 C1040.69144727 802.66937262 1047.88213928 809.83949333 1055.06794214 817.01452398 C1058.177248 820.11887961 1061.28896743 823.22078835 1064.40262604 826.32077789 C1065.87564607 827.78810234 1067.34749103 829.25659363 1068.8188324 830.7256012 C1070.60329714 832.50722233 1072.38953712 834.28706813 1074.17799377 836.06468201 C1078.45891961 840.34523006 1082.56952731 844.70264249 1086.51722145 849.29235458 C1088.29717988 851.34224791 1090.16722898 853.27457085 1092.09936523 855.18115234 C1092.81958359 855.89483978 1093.53980194 856.60852722 1094.28184509 857.34384155 C1095.40883568 858.45367905 1095.40883568 858.45367905 1096.55859375 859.5859375 C1098.17655994 861.19127761 1099.7943948 862.79675008 1101.41210938 864.40234375 C1103.94076651 866.90602832 1106.47100903 869.40807228 1109.00366211 871.90771484 C1111.46378098 874.33781785 1113.91779733 876.77394997 1116.37109375 879.2109375 C1117.13659042 879.96297455 1117.9020871 880.7150116 1118.69078064 881.48983765 C1119.38893387 882.18461212 1120.0870871 882.8793866 1120.80639648 883.59521484 C1121.42481918 884.20618011 1122.04324188 884.81714539 1122.68040466 885.44662476 C1124 887 1124 887 1124 889 C1082.7280363 901.97995331 1041.2563614 909.98027201 998.27063918 914.48497963 C995.75993738 914.74895518 993.25012563 915.02050277 990.74025154 915.29222107 C909.23642697 923.96737314 836.13458653 909.23029106 771.54827596 857.26121525 C708.50383705 806.18325777 651.67927126 747.44146111 592.5083138 684.8594493 C590.15856576 682.37454738 587.80688439 679.89147916 585.45526397 677.40834935 C528.9785997 617.76704619 473.70443726 557.09494939 404 477 C401.18358194 478.28368795 399.13029502 479.62010442 396.94595701 481.80679667 C396.36529059 482.38322472 395.78462418 482.95965277 395.18636182 483.55354834 C394.55702189 484.18842814 393.92768196 484.82330794 393.27927113 485.47742653 C392.60129424 486.15339532 391.92331736 486.82936411 391.22479573 487.5258168 C388.9377886 489.80850806 386.658031 492.0983068 384.37812805 494.38809204 C382.73002183 496.03604231 381.08147483 497.68355184 379.43252343 499.33065641 C375.36669245 503.39421405 371.3055466 507.46241204 367.24630245 511.53254865 C362.38517494 516.40618732 357.51823568 521.2740062 352.65104308 526.14158656 C343.66828028 535.12537081 334.6901143 544.11373568 325.71447182 553.10463333 C316.82509567 562.00905894 307.9334437 570.91120244 299.03880882 579.81037521 C298.2097104 580.63989754 298.2097104 580.63989754 297.36386251 581.4861779 C294.55686911 584.29457579 291.74982951 587.10292749 288.9427686 589.91125791 C269.05204621 609.81107306 249.16558853 629.71514485 229.28198242 649.62207031 C228.07922395 650.82623636 226.87646539 652.03040231 225.67370673 653.23456816 C225.07776535 653.83120715 224.48182397 654.42784613 223.86782376 655.04256508 C220.85268111 658.06123667 217.83753611 661.07990593 214.8223877 664.09857178 C214.22447193 664.69718601 213.62655616 665.29580024 213.01052173 665.91255429 C199.11699282 679.82226944 185.22217717 693.73069889 171.3269043 707.63867188 C170.73158516 708.23453713 170.13626602 708.83040239 169.5229069 709.44432417 C155.9397411 723.03992823 142.35598246 736.63493959 128.77105236 750.22878075 C128.20062982 750.79957868 127.63020728 751.37037661 127.04249921 751.95847145 C121.91221518 757.09212136 116.78190736 762.22574751 111.65147331 767.35924749 C98.83978095 780.17859954 86.02958156 792.99943757 73.22300708 805.82390255 C64.30153824 814.75782484 55.3784813 823.69015795 46.45370189 832.62077309 C41.61385996 837.46389967 36.77487707 842.30787779 31.93816185 847.15412712 C27.51848801 851.5823737 23.09657391 856.0083698 18.67280199 860.43252234 C17.0650349 862.04126255 15.45813325 863.65086819 13.85214321 865.26138242 C11.68477245 867.43462881 9.51440918 869.60483978 7.34320545 871.77425575 C6.70684202 872.41381789 6.0704786 873.05338002 5.41483143 873.71232283 C1.11413681 878 1.11413681 878 0 878 C0 588.26 0 298.52 0 0 Z " fill="#FFFFFF" transform="translate(0,273)"/>
</svg>
